<svg xmlns="http://www.w3.org/2000/svg" version="1.1" xlink="http://www.w3.org/1999/xlink" xmlns:svgjs="http://svgjs.com/svgjs" width="100%" height="100%" viewBox="4.709589004516602 10.955205917358398 90.60293579101562 78.10779571533203"><g fill="#faa21e"><path d="M76 39.426a1.97 1.97 0 0 0-1-.363H47.387l4.156-26.32a1.577 1.577 0 0 0-.867-1.63 1.578 1.578 0 0 0-1.82.321l-6.668 7.145V12.5a1.57 1.57 0 0 0-1.082-1.465 1.578 1.578 0 0 0-1.742.539L4.989 58.45a1.627 1.627 0 0 0-.165 1.511c.028.083.063.165.102.243l7.813 12.5a1.56 1.56 0 0 0 1.324.734H35.75L17.845 86.231a1.566 1.566 0 0 0-.563 1.738 1.576 1.576 0 0 0 1.469 1.094h62.5a1.608 1.608 0 0 0 1.45-.98l.003-.004 12.5-31.25H95.2a1.561 1.561 0 0 0-.449-1.781zM50.887 85.938l-6.582-10.973 28.527 10.973zm-8.52-15.066l4.528-28.684h26.738l5.723 42.91zm-3.304-48.945L23.137 38.989l15.926-21.715zM8.21 59.568c4.164-4.46 36.238-38.824 39.449-42.27l-8.371 53.016h-24.36zm15.414 26.371l16.53-11.809c1.766 2.941 5.321 8.863 7.083 11.809zm58.387-4.547l-4.934-37L91.88 56.724z"></path></g></svg>