<svg xmlns="http://www.w3.org/2000/svg" version="1.1" xlink="http://www.w3.org/1999/xlink" xmlns:svgjs="http://svgjs.com/svgjs" width="100%" height="100%" viewBox="5.690000057220459 -61.189998626708984 314.2200012207031 61.189998626708984"><g fill="#4a4a4a"><path d="M36.91 0L52.21 0L34.24 -32.02L52.03 -61.19L37.18 -61.19L23.21 -36.91L19.48 -36.91L19.48 -61.19L5.69 -61.19L5.69 0L19.48 0L19.48 -25.26L23.21 -25.26Z M100.41 0L114.46 0L98.19 -61.19L78.8 -61.19L62.43 0L76.31 0L79.24 -12.27L97.3 -12.27ZM88.49 -48.74L94.54 -23.66L82 -23.66L87.96 -48.74Z M129.76 0L143.63 0L143.63 -61.19L129.76 -61.19Z M161.42 0L202.24 0L202.24 -11.47L177.79 -11.47L202.07 -50.52L202.07 -61.19L162.22 -61.19L162.22 -49.72L185.52 -49.72L161.42 -10.94Z M220.12 0L256.94 0L256.94 -11.47L233.91 -11.47L233.91 -25.17L253.65 -25.17L253.65 -36.64L233.91 -36.64L233.91 -49.72L256.94 -49.72L256.94 -61.19L220.12 -61.19Z M307.1 0L319.91 0L319.91 -61.19L306.66 -61.19L306.66 -29.08L306.21 -29.08L289.4 -61.19L275.44 -61.19L275.44 0L288.69 0L288.69 -34.95L289.14 -34.95Z"></path></g></svg>