<?xml version="1.0" encoding="UTF-8"?><svg id="Layer_1" xmlns="http://www.w3.org/2000/svg" viewBox="0 0 564.88 93.22"><defs><style>.cls-1{fill:#fff;stroke-width:0px;}</style></defs><path class="cls-1" d="m3.04,2.57h21.36v38.5c12.69-11.72,24.87-22.89,41.63-38.5h26.14l-41.32,37.9,43.65,50.13h-26.57l-32.34-38.43-11.19,9.36v29.07H3.04V2.57Z"/><path class="cls-1" d="m138.57,70.63l-7.68,19.98h-21.98L144.37,2.57h27.4l37.27,88.04h-23.11l-8.18-19.98h-39.18Zm33.21-17.12c-8.19-20.18-12.18-30.46-14.29-37.19h-.12c-1.97,6.59-6.64,19.97-13.26,37.19h27.68Z"/><path class="cls-1" d="m249.91,2.57v88.04h-21.37V2.57h21.37Z"/><path class="cls-1" d="m273.19,75.1l53.14-55.86h-50.56V2.57h77.44v16.74l-52.11,54.63h56.27l-2.38,16.67h-81.79v-15.51Z"/><path class="cls-1" d="m449.42,53.46h-49.13v20.04h54.63l-2.46,17.11h-73.54V2.57h73.15v17.11h-51.79v16.67h49.13v17.11Z"/><path class="cls-1" d="m478.8,90.61V2.57h25.3c24.73,37.75,34.6,51.49,40.12,61.95h.25c-.86-9.24-.74-25.72-.74-40.21V2.57h19.58v88.04h-23.72c-8.3-13.11-36.47-56.87-41.71-66.93h-.25c.74,10.87.74,23.38.74,39.02v27.91h-19.57Z"/></svg>